<svg width="157" height="92" viewBox="200 685 157 92" xmlns="http://www.w3.org/2000/svg" xmlns:xlink="http://www.w3.org/1999/xlink"><defs><path id="a" d="M0 .356v3.788h7.635V.356H0z"/><path id="c" d="M1.93 1.348v-.78H.348v.78H1.93z"/></defs><text fill="none" font-family="Chivo-Regular, Chivo" font-size="10"><tspan x="274.846" y="722.426" fill="#162933">n° data points</tspan></text><path fill="#D7E3E5" fill-rule="evenodd" opacity=".535" d="M202.69 753.198l29.8 13.164 29.407-12.772-29.8-13.164"/><g opacity=".535" fill="none" fill-rule="evenodd"><path stroke="#FFF" d="M261.898 753.59l-29.408 12.772-29.8-13.164 29.408-12.772z"/><path fill="#D7E3E5" d="M261.898 700.358L232.49 713.13l-29.8-13.164 29.408-12.772"/><path stroke="#FFF" d="M261.898 700.358L232.49 713.13l-29.8-13.164 29.408-12.772z"/><path fill="#D7E3E5" d="M202.35 700.162v53.232l29.944 12.97v-53.45"/><path stroke="#FFF" d="M202.35 700.162v53.232l29.944 12.97v-53.45z"/><g><path fill="#D7E3E5" d="M262.238 700.162v53.232l-29.944 12.97v-53.45"/><path stroke="#FFF" d="M262.238 700.162v53.232l-29.944 12.97v-53.45z"/></g></g><path d="M266 756.96l-29.943 12.97L266 756.96z" stroke="#6B6B6B" stroke-linecap="round" fill="none"/><path d="M266.5 754.5v-53.01" stroke="#6B6B6B" fill="none"/><g fill="none" fill-rule="evenodd"><g transform="rotate(2 -21921.248 7313.985)"><mask id="b" fill="#fff"><use xlink:href="#a"/></mask><path d="M3.604 4.062c-.286-.142-.453-.322-.5-.54-.034-.14-.013-.283.06-.43l.614-1.3c.126-.294.09-.514-.11-.663-.062-.047-.128-.088-.2-.125C3.4.972 3.307.94 3.19.908 3.075.878 2.94.86 2.78.856c-.396-.002-.783.087-1.16.27-.472.228-.666.46-.58.697.046.136.148.243.302.32l.095.048c.028.014.057.026.09.038l-.805.39c-.037-.013-.063-.023-.076-.03L.592 2.56C.297 2.415.11 2.228.03 2c-.086-.23.016-.48.305-.744.152-.14.39-.29.72-.45.328-.16.655-.273.982-.342.326-.068.628-.104.906-.106C3.47.35 3.906.432 4.245.6c.286.143.455.278.512.4.096.227.074.497-.066.81l-.575 1.256c-.06.104-.093.186-.1.244-.006.06.002.095.025.106l2.99-1.45.605.3-3.868 1.878-.163-.082z" fill="#000" mask="url(#b)"/></g><path d="M250.632 768.4c-.253-.14-.575-.207-.966-.205-.39.002-.753.076-1.086.225-.33.145-.518.314-.567.507-.052.185.053.35.316.492l1.722.934c.262.143.585.21.966.204.397-.004.758-.08 1.087-.224.334-.148.523-.317.566-.508.044-.19-.06-.354-.314-.492l-1.724-.935zm2.495.547c.445.242.63.523.557.845-.072.317-.384.598-.935.842l-.11.048c-.556.247-1.156.37-1.802.37-.66 0-1.21-.122-1.65-.36l-1.624-.882c-.45-.243-.638-.525-.565-.845.072-.32.38-.6.927-.842l.108-.048c.54-.24 1.143-.36 1.81-.367.653-.008 1.206.112 1.66.36l1.622.88zM255.766 766.127c-.254-.14-.575-.206-.966-.205-.39.002-.753.077-1.087.225-.328.145-.517.314-.565.507-.053.186.053.35.314.492l1.724.935c.262.145.585.212.966.205.396-.004.758-.08 1.087-.224.332-.147.522-.316.565-.506.043-.19-.062-.355-.316-.492l-1.724-.935zm2.494.547c.445.24.632.524.558.845-.072.317-.384.597-.934.842l-.11.048c-.556.246-1.157.37-1.803.37-.66-.002-1.21-.123-1.65-.36l-1.62-.882c-.452-.245-.64-.526-.567-.846.072-.32.38-.6.927-.842l.11-.048c.538-.24 1.142-.36 1.81-.366.65-.01 1.204.11 1.66.358l1.62.88zM263.438 763.685c-.53-.29-1.05-.32-1.563-.093-.272.122-.416.275-.432.462-.014.186.112.352.38.498l2.03 1.1-.786.348-3.412-1.852.567-.25.61.223c-.05-.35.208-.65.776-.903.56-.25 1.142-.318 1.737-.21-.026-.215.037-.394.19-.534.15-.14.335-.257.552-.354.21-.093.425-.165.638-.214.214-.048.43-.073.65-.073.463-.008.892.096 1.288.31l2.297 1.248-.784.348-2.184-1.184c-.53-.288-1.05-.32-1.562-.092-.273.12-.418.275-.432.46-.015.187.11.353.378.498l2.03 1.102-.785.348-2.182-1.185z" fill="#000"/><g transform="rotate(2 -21677.523 8090.055)"><mask id="d" fill="#fff"><use xlink:href="#c"/></mask><path fill="#000" mask="url(#d)" d="M.347.97l.83-.4.754.375-.828.403"/></g></g></svg>