<svg width="95" height="21" viewBox="851 709 95 21" xmlns="http://www.w3.org/2000/svg"><path d="M868.537 728.77v-4.967l-.104-.026-4.576 4.94c-.676.156-1.404.26-2.028.26-4.63 0-6.71-4.576-6.71-9.282 0-5.278 2.835-8.71 6.683-8.71.754 0 1.404.104 2.028.312l4.5 4.836h.103v-4.94c-1.898-.858-4.342-1.248-6.422-1.248-4.705 0-10.97 3.068-10.97 9.906 0 6.605 5.017 10.115 10.555 10.115 2.47 0 4.81-.286 6.942-1.196zm8.788-.495c-1.326 0-2.106-.858-2.106-2.21 0-.806.285-1.352.545-1.742l3.666-1.586v4.602c-.52.493-1.3.935-2.105.935zm2.21 1.43h5.512v-.156l-1.872-1.51v-5.25c0-3.537-.494-6.11-5.226-6.11-1.847 0-3.64.13-5.617.26v4.627h.104l3.51-4.056h.312c2.47 0 3.17 1.145 3.17 4.16v.443l-6.967 1.82c-.416.468-1.014 1.482-1.014 2.704 0 1.664 1.325 3.328 3.82 3.328 1.847 0 3.33-1.014 4.265-1.976v1.715zm8.294-1.612l-1.873 1.456v.155h7.436v-.156l-1.872-1.457v-17.888h-5.667v.156l1.976 1.925v15.808zm10.425-13.65c1.196 0 2.236-.806 2.236-2.158 0-1.274-1.04-2.158-2.235-2.158-1.196 0-2.21.884-2.21 2.158 0 1.352 1.014 2.158 2.21 2.158zm3.718 15.262v-.156l-1.872-1.51v-11.1h-5.59v.155l1.873 1.742v9.204l-1.872 1.51v.155h7.463zm15.886-6.968c0-3.172-1.587-6.058-5.67-6.058-1.43 0-2.6.727-3.95 1.663v-8.138h-5.59v.156l1.87 1.925v17.42h5.695c3.978 0 7.644-2.002 7.644-6.968zm-7.41 6.136c-.755 0-1.38-.364-2.21-.78v-8.996c.935-.416 1.585-.676 2.313-.676 2.262 0 3.458 1.717 3.458 4.785 0 3.328-1.48 5.668-3.56 5.668zm17.185.676l-2.366-1.51v-6.707c0-1.17.623-1.846 1.377-2.184l3.406 1.95h.104v-4.42c-2.184.077-4.03 1.09-4.966 2.73h-.05v-2.47h-5.46v.155l1.87 1.716v9.23l-1.87 1.51v.155h7.955v-.156zm10.79.415c3.796 0 7.306-2.548 7.306-6.734 0-3.717-2.937-6.55-6.94-6.55-3.797 0-7.307 2.547-7.307 6.76 0 3.717 2.964 6.525 6.942 6.525zm.546-.832c-2.34 0-3.535-3.25-3.535-6.422 0-2.833.884-5.2 2.834-5.2 2.417 0 3.535 3.25 3.535 6.267 0 2.99-1.014 5.356-2.834 5.356z" fill="#FFF" fill-rule="evenodd"/></svg>