<svg width="88" height="35" viewBox="0 0 88 35" xmlns="http://www.w3.org/2000/svg"><g fill="#FFF" fill-rule="evenodd"><path d="M36.923 6.84l1.16.294c-.244.952-.68 1.677-1.312 2.177-.63.5-1.4.75-2.313.75-.944 0-1.71-.192-2.303-.576-.59-.384-1.04-.94-1.35-1.67-.308-.728-.462-1.51-.462-2.347 0-.91.174-1.707.522-2.386.35-.678.844-1.193 1.487-1.546.644-.352 1.352-.528 2.125-.528.876 0 1.612.223 2.21.67.597.445 1.013 1.072 1.248 1.88l-1.14.27c-.204-.638-.5-1.102-.885-1.393-.386-.29-.872-.436-1.457-.436-.672 0-1.235.162-1.687.484-.45.324-.77.757-.952 1.3-.182.544-.274 1.104-.274 1.682 0 .744.11 1.394.326 1.95.217.555.554.97 1.012 1.245.458.275.954.412 1.487.412.65 0 1.2-.188 1.65-.562.45-.375.754-.93.913-1.667zm3.108 3.07V1.156h1.16V9.91h-1.16zm5.755 0V2.19H42.9V1.155h6.94v1.033h-2.896V9.91h-1.16zm5.766 0V1.156h1.16V9.91h-1.16zm2.828 0V8.837l4.485-5.608c.32-.398.622-.745.908-1.04h-4.884V1.155h6.27v1.033l-4.915 6.075-.53.615h5.59V9.91h-6.922zm8.52 0V1.156h6.33v1.033h-5.172V4.87H68.9v1.028h-4.844v2.98h5.375V9.91h-6.533zm8.447 0V1.156h1.188l4.6 6.875V1.155h1.11V9.91h-1.19l-4.598-6.88v6.88h-1.11zM30.676 26.22v-8.756h3.016c.68 0 1.2.042 1.56.126.5.115.93.324 1.283.627.462.39.808.89 1.036 1.496.23.607.345 1.3.345 2.082 0 .664-.078 1.254-.233 1.767-.155.514-.354.94-.597 1.276-.243.336-.51.6-.798.794-.288.193-.637.34-1.045.44-.408.1-.877.148-1.406.148h-3.16zm1.16-1.033h1.868c.578 0 1.03-.054 1.36-.16.327-.11.59-.26.784-.455.275-.275.49-.644.642-1.108.154-.464.23-1.026.23-1.687 0-.916-.15-1.62-.45-2.112-.3-.492-.667-.82-1.097-.988-.31-.12-.81-.18-1.5-.18h-1.838v6.69zm7.008 1.033l3.362-8.756h1.25l3.582 8.756h-1.32l-1.02-2.652h-3.662l-.962 2.652h-1.23zm2.526-3.595h2.97l-.915-2.425c-.28-.737-.486-1.342-.62-1.816-.113.562-.27 1.12-.473 1.672l-.962 2.57zm7.587 3.595v-7.722h-2.885v-1.034h6.94v1.034h-2.896v7.722h-1.16zm3.06 0l3.364-8.756h1.25l3.583 8.756h-1.32l-1.022-2.652h-3.66l-.962 2.652h-1.23zm2.527-3.595h2.97l-.915-2.425c-.28-.737-.487-1.342-.622-1.816-.112.562-.27 1.12-.472 1.672l-.962 2.57zm9.8 3.595v-8.756h1.16v7.723h4.31v1.033h-5.47zm6.797 0l3.363-8.756h1.248l3.585 8.756h-1.32l-1.02-2.652h-3.662l-.962 2.652h-1.23zm2.527-3.595h2.968l-.913-2.425c-.28-.737-.486-1.342-.622-1.816-.11.562-.268 1.12-.47 1.672l-.963 2.57zm7.242 3.595v-8.756h3.284c.67 0 1.205.09 1.61.266.404.177.72.45.95.818.228.37.342.754.342 1.156 0 .374-.1.727-.304 1.057-.203.332-.51.6-.92.802.53.155.937.42 1.22.794.286.374.43.816.43 1.326 0 .41-.088.79-.26 1.144-.174.352-.39.624-.643.815-.256.192-.576.336-.96.434-.384.098-.855.146-1.413.146H80.91zm1.157-5.077h1.894c.514 0 .883-.033 1.106-.1.294-.09.516-.234.666-.437.15-.203.224-.458.224-.765 0-.29-.07-.545-.21-.766-.14-.22-.338-.372-.597-.454-.26-.082-.703-.122-1.333-.122h-1.75v2.645zm0 4.044h2.18c.375 0 .638-.014.79-.042.266-.048.49-.127.668-.24.18-.11.326-.272.442-.485.115-.213.173-.46.173-.738 0-.327-.084-.61-.25-.85-.168-.242-.4-.41-.697-.51-.296-.096-.723-.145-1.28-.145h-2.026v3.01zM11.228 18.034l.034.077c.27.392.75.53 1.202.442.955-.624 1.273-1.997.393-2.56-.322-.047-.407-.05-.5-.05-.14 0-.255.115-.255.256 0 .14.114.254.255.254.085 0 .164.002.354.008.38.285.16 1.224-.437 1.63-.178.014-.453-.065-.573-.235.01.013.01.013-.003-.02l-.034-.077c-.06-.127-.213-.18-.34-.12-.127.06-.18.212-.12.34l.025.056zm-6.07-1.118c.226-4.587 3.308-7.128 9.03-6.406 4.287.54 5.405 3.686 3.947 8.66-1.135 3.874-3.917 8.652-6.2 11.094-.095.103-.09.264.013.36.103.096.264.09.36-.012 2.336-2.5 5.158-7.346 6.316-11.298 1.535-5.236.295-8.722-4.372-9.31-6.014-.758-9.362 2-9.603 6.887-.214 4.33 2.15 9.533 5.727 12.512.108.09.27.076.36-.032.09-.11.074-.27-.034-.36-3.457-2.878-5.75-7.927-5.545-12.094zm5.466 2.81c.434.397.725.558 1.144.504.18-.1.237-.13.378-.187.36-.147.52-.263.61-.556.263-.9-.372-2-1.252-2.27-.747.128-1.286.53-1.454 1.08.014.43.122.783.296 1.15.06.128.212.183.34.123.127-.06.18-.213.12-.34-.15-.316-.24-.61-.26-.876.1-.26.483-.546.936-.643.492.186.968 1.008.785 1.63-.03.096-.087.138-.31.23-.197.08-.287.126-.39.215-.085-.032-.27-.134-.6-.435-.11-.102-.166-.154-.224-.204-.107-.092-.268-.08-.36.027-.09.107-.08.268.028.36.052.044.103.09.214.193zM9.226 12.27c4.36-3.048 7.29-.93 7.86 4.425.553 5.19-1.455 10.995-4.918 13.046.016-.014-.028-.03-.153-.113-.13-.085-.287-.053-.364.065-.077.117-.045.275.073.353.246.163.403.22.635.163 3.732-2.197 5.807-8.2 5.236-13.566-.606-5.694-3.93-8.098-8.66-4.79-4.71 3.295-2.87 11.53 1.758 17.954.082.114.242.14.356.058.114-.082.14-.242.058-.356-4.478-6.217-6.258-14.176-1.88-17.238zm1.743 6.146c-.065.09-.12.176-.173.27-.046.143-.056.227-.055.315 0 .158.025.28.09.52l.028.104c.198.26.393.355.727.448.78-.108 1.02-.576 1.22-1.54-.073-.343-.358-.673-.555-.78l-.217-.013c-.07.027-.12.05-.225.104l-.04.02c-.17.085-.257.118-.366.126-.14.012-.245.135-.233.275.012.14.135.245.276.233.19-.015.33-.066.554-.18l.04-.02c.096-.048.134-.066.185-.086l-.095-.237-.122.224c.084.045.28.27.304.355-.162.634-.328.957-.7 1.02-.137-.063-.257-.12-.317-.187.044.05.044.05.03-.003-.055-.196-.073-.29-.074-.386 0-.046.006-.087.016-.125.02-.016.063-.086.117-.16.055-.077.085-.116.24-.312.09-.11.07-.27-.04-.358-.11-.088-.27-.07-.358.04-.162.205-.194.245-.256.33zm-5.003 4.73c.217.604.328.91.438 1.212 1.2 3.27 2.2 5.1 3.883 6.525l.374-.05c.435-.628.965-1.312 1.712-2.223.26-.318 1.638-1.975 2.034-2.46 4.653-5.702 6.293-9.525 4.486-13.584l-.08-.17c-1.586-3.355-5.985-3.583-9.962-1.14-4.092 2.514-5.832 6.66-3.478 10.29.077.117.235.15.353.074s.15-.234.075-.352c-2.173-3.35-.558-7.197 3.317-9.577 3.75-2.304 7.806-2.095 9.234.922.038.08.038.08.074.162 1.7 3.817.122 7.493-4.415 13.054-.394.483-1.77 2.14-2.034 2.46-.755.92-1.293 1.613-1.737 2.256l.374-.05c-1.596-1.35-2.562-3.118-3.733-6.312-.11-.3-.22-.605-.437-1.208-.26-.723-.436-1.192-.622-1.662-.052-.13-.2-.194-.33-.142-.132.05-.196.2-.144.33.185.463.358.93.617 1.647zm5.733-2.86c1.328-.23 2.37-1.477 2.646-2.884.3-1.53-.388-2.76-1.963-2.978-1.75.496-3.07 2.176-2.972 3.817.01.142.13.25.27.24.14-.008.248-.13.24-.27-.085-1.392 1.076-2.866 2.5-3.29 1.15.183 1.675 1.12 1.426 2.383-.24 1.218-1.138 2.295-2.138 2.483-.85-.21-1.628-.833-1.793-1.613-.03-.138-.165-.225-.302-.196-.138.03-.226.164-.197.302.212 1 1.153 1.754 2.284 2.005zM6.207 26.34l.24.488c1.52 3.082 2.208 4.773 2.606 6.74l.166.82.318-.774c.77-1.865 1.263-2.545 5.402-7.84 2.94-3.762 4.48-6.122 5.364-8.632.902-2.56.864-4.885-.268-7.042-2.03-3.865-6.892-4.26-11.415-1.605-4.562 2.68-6.895 7.34-5.027 11.577.057.13.208.187.336.13.128-.056.187-.207.13-.336-1.748-3.965.457-8.37 4.82-10.932 4.3-2.525 8.834-2.156 10.704 1.403 1.062 2.02 1.098 4.202.24 6.635-.86 2.442-2.378 4.768-5.286 8.488-4.185 5.354-4.674 6.03-5.47 7.96l.484.046c-.408-2.022-1.11-3.743-2.648-6.864l-.24-.487c-1.492-3.02-2.105-4.428-2.592-6.213-.037-.136-.177-.216-.312-.18-.136.038-.216.178-.18.314.5 1.827 1.12 3.254 2.627 6.304zm-2.403-2.434l.092.225c1.933 4.696 2.702 6.98 3.09 9.834l.074.535.366-.397c-.38.41 4.826-4.96 6.646-7.022 2.073-2.348 3.76-4.53 5.044-6.595C23 14.23 22.813 9.54 17.218 7.058 9.988 3.852.25 12.394 2.458 20.545c.038.136.178.217.314.18.136-.037.216-.177.18-.313-2.1-7.74 7.224-15.918 14.06-12.89 5.24 2.328 5.414 6.665 1.67 12.694-1.265 2.04-2.937 4.198-4.992 6.528-1.81 2.052-7.01 7.416-6.638 7.013l.44.14c-.397-2.912-1.175-5.225-3.125-9.96l-.092-.225c-.677-1.644-.98-2.395-1.33-3.323-.05-.133-.198-.2-.33-.15-.132.05-.198.197-.148.33.354.934.658 1.688 1.337 3.336zm9.37-6.86c.873-.833.875-2.468.028-3.285-1.673-.757-2.935 1.35-2.042 2.725.077.118.235.152.353.075s.15-.234.075-.352c-.646-.994.26-2.507 1.334-2.03.565.566.564 1.867-.073 2.478-.345.246-.828.046-1.284-.477-.093-.107-.253-.118-.36-.026-.106.093-.117.254-.024.36.607.697 1.344 1.002 1.993.532zm-6.903 11.74c.168.272.168.272.333.543 1.05 1.715 1.624 2.75 2.106 3.89l.302.716.18-.756c.518-2.184 1.997-4.177 5.147-7.41.27-.278.387-.397 1.014-1.035 5.584-5.673 7.305-8.44 6.214-12.28-1.528-5.387-7.157-6.63-12.753-3.828-5.637 2.82-8.43 8.32-5.707 13.425.067.125.22.17.345.105.124-.066.17-.22.105-.345C.988 17 3.635 11.79 9.043 9.082c5.344-2.674 10.61-1.513 12.035 3.51 1.02 3.586-.638 6.25-6.087 11.786-.627.638-.745.758-1.016 1.036-3.214 3.3-4.732 5.343-5.278 7.648l.482-.04c-.494-1.17-1.077-2.222-2.14-3.96l-.332-.542c-1.915-3.12-2.68-4.64-3.124-6.643-.03-.137-.167-.224-.304-.193-.137.03-.224.166-.194.304.46 2.076 1.244 3.632 3.187 6.8zm5.19-8.87c1.993-.216 2.995-.868 3.123-1.83.106-.79-.432-1.67-1.29-2.298-.856-.627-1.825-.85-2.46-.455-.762.472-.888 1.66-.32 3.508.04.136.183.21.318.17.136-.04.21-.184.17-.32-.508-1.65-.406-2.61.1-2.923.42-.26 1.185-.085 1.893.432.722.528 1.162 1.248 1.085 1.82-.09.68-.892 1.2-2.54 1.413-.128-.108-.31-.33-.558-.788-.067-.124-.222-.17-.345-.103-.124.067-.17.222-.103.346.296.545.535.838.93 1.027zM9.2 29.99c.114.2.65 1.133.8 1.39.305.534.55.963.78 1.376l.4.06c3.632-3.49 6.947-8.318 8.27-12.61 1.71-5.537.153-9.903-5.323-12.33C8.24 6.58 2.265 12.367 4.123 17.98c.044.134.188.206.322.162.134-.044.206-.19.162-.322C2.88 12.602 8.5 7.158 13.97 8.357c5.172 2.3 6.63 6.393 4.994 11.7-1.295 4.2-4.563 8.956-8.138 12.39l.4.06c-.233-.414-.478-.846-.785-1.38l-.798-1.39c-3.04-5.298-4.395-8.28-5.026-11.88-.024-.138-.157-.23-.295-.206-.138.025-.23.157-.206.296.644 3.676 2.016 6.697 5.086 12.044zm1.123-12.05c.516.35 1.32.274 2.068-.12.754-.398 1.31-1.042 1.402-1.73.113-.827-.432-1.594-1.63-2.182-.718.058-1.117.362-1.698 1.013-.16.184-.24.274-.313.353-.095.103-.088.264.015.36.104.095.265.088.36-.015.077-.083.16-.178.32-.357.505-.566.828-.812 1.242-.87.87.476 1.28 1.052 1.2 1.633-.068.5-.513 1.018-1.133 1.345-.6.316-1.214.374-1.545.15-.378-.255-.442-.904-.033-1.982.05-.132-.017-.28-.15-.33-.13-.05-.277.017-.327.15-.482 1.272-.395 2.166.223 2.584zm-3.1 12.74c.455.702 1.983 3.028 2.105 3.214l.424.003c.827-1.227 1.82-2.396 3.382-4.055.315-.334 1.783-1.875 1.34-1.408 3.323-3.494 4.902-5.544 5.977-8.26 3.436-8.665-1.058-14.937-8.622-15.22-7.59-.282-12.787 5.67-10.45 14.815.035.136.174.218.31.183s.22-.174.184-.31c-2.25-8.805 2.677-14.45 9.937-14.18 7.222.27 11.468 6.196 8.167 14.524-1.044 2.636-2.592 4.647-5.873 8.096.446-.47-1.025 1.074-1.34 1.41-1.58 1.677-2.59 2.864-3.434 4.12l.424.002c-.122-.187-1.65-2.51-2.104-3.212-2.87-4.423-4.59-7.527-5.786-10.785-.048-.132-.195-.2-.327-.15-.132.047-.2.194-.15.326 1.21 3.302 2.947 6.434 5.836 10.886z"/></g></svg>