<svg width="1423" height="189" viewBox="0 -1 1423 189" xmlns="http://www.w3.org/2000/svg"><path d="M90.79 87.332h79.02v72.33c-7.677 7.433-18.803 13.976-33.37 19.626-14.568 5.653-29.335 8.488-44.282 8.488-19.002 0-35.55-3.97-49.674-11.948-14.12-7.96-24.718-19.365-31.84-34.177C3.544 126.835 0 110.7 0 93.28 0 74.36 3.97 57.57 11.897 42.866c7.91-14.7 19.513-25.972 34.79-33.815C58.338 3.017 72.826 0 90.16 0c22.546 0 40.147 4.73 52.82 14.193 12.675 9.46 20.83 22.525 24.458 39.19l-36.422 6.822c-2.573-8.915-7.366-15.952-14.437-21.13-7.053-5.158-15.87-7.745-26.435-7.745-16.02 0-28.756 5.076-38.214 15.227C42.47 56.71 37.74 71.79 37.74 91.762c0 21.56 4.78 37.726 14.374 48.484 9.573 10.78 22.132 16.17 37.654 16.17 7.682 0 15.378-1.518 23.107-4.534 7.73-3.017 14.352-6.658 19.875-10.957v-23.04H90.79V87.333z" fill="#FFF" fill-rule="evenodd"/><path d="M169.81 95.01c0-18.492 2.77-34.017 8.29-46.573 4.136-9.248 9.772-17.533 16.91-24.904 7.152-7.35 14.965-12.787 23.466-16.348C229.783 2.41 242.836 0 257.62 0c26.743 0 48.154 8.307 64.203 24.904 16.07 16.593 24.094 39.666 24.094 69.233 0 29.317-7.974 52.26-23.913 68.802-15.935 16.545-37.228 24.818-63.908 24.818-27.014 0-48.467-8.24-64.406-24.7-15.918-16.468-23.88-39.144-23.88-68.048m37.773-1.236c0 20.55 4.746 36.14 14.24 46.754 9.49 10.614 21.557 15.918 36.172 15.918 14.618 0 26.617-5.274 35.98-15.788 9.373-10.53 14.056-26.317 14.056-47.378 0-20.816-4.564-36.342-13.677-46.572-9.134-10.236-21.246-15.362-36.358-15.362-15.112 0-27.288 5.177-36.536 15.543-9.245 10.365-13.877 26.004-13.877 46.884M463.485 117.92V87.33h79.024v72.33c-7.68 7.433-18.805 13.976-33.39 19.626-14.584 5.653-29.333 8.488-44.28 8.488-18.986 0-35.55-3.97-49.674-11.948-14.12-7.96-24.736-19.365-31.824-34.177-7.1-14.816-10.66-30.95-10.66-48.37 0-18.92 3.952-35.712 11.896-50.415 7.928-14.7 19.53-25.972 34.806-33.815C431.02 3.017 445.524 0 462.86 0c22.546 0 40.147 4.73 52.82 14.193 12.687 9.46 20.847 22.525 24.47 39.19l-36.42 6.822c-2.554-8.915-7.367-15.952-14.434-21.13-7.054-5.158-15.872-7.745-26.436-7.745-16.02 0-28.756 5.076-38.22 15.227-9.458 10.154-14.17 25.233-14.17 45.205 0 21.56 4.78 37.726 14.353 48.484 9.577 10.78 22.132 16.17 37.658 16.17 7.68 0 15.38-1.518 23.108-4.534 7.73-3.017 14.352-6.658 19.892-10.957v-23.04h-41.995v.034zM572.568 95.01c0-18.492 2.768-34.017 8.307-46.573 4.135-9.248 9.755-17.533 16.906-24.904 7.14-7.35 14.965-12.787 23.47-16.348C632.557 2.41 645.606 0 660.39 0c26.747 0 48.154 8.307 64.207 24.904 16.07 16.593 24.094 39.666 24.094 69.233 0 29.317-7.977 52.26-23.912 68.802-15.935 16.545-37.244 24.818-63.908 24.818-27.013 0-48.47-8.24-64.406-24.7-15.922-16.468-23.896-39.144-23.896-68.048m37.79-1.236c0 20.55 4.745 36.14 14.238 46.754 9.493 10.614 21.554 15.918 36.173 15.918 14.617 0 26.616-5.274 35.974-15.788 9.378-10.53 14.06-26.317 14.06-47.378 0-20.816-4.55-36.342-13.68-46.572-9.13-10.236-21.243-15.362-36.355-15.362-15.113 0-27.293 5.177-36.537 15.543-9.26 10.365-13.876 26.004-13.876 46.884M941.163 117.92V87.33h79.024v72.33c-7.683 7.433-18.808 13.976-33.393 19.626-14.567 5.653-29.334 8.488-44.28 8.488-18.986 0-35.546-3.97-49.67-11.948-14.125-7.96-24.72-19.365-31.84-34.177-7.105-14.816-10.645-30.95-10.645-48.37 0-18.92 3.952-35.712 11.88-50.415 7.927-14.7 19.53-25.972 34.806-33.815C908.698 3.017 923.182 0 940.52 0c22.543 0 40.144 4.73 52.818 14.193 12.674 9.46 20.833 22.525 24.457 39.19l-36.422 6.822c-2.57-8.915-7.366-15.952-14.437-21.13-7.05-5.158-15.867-7.745-26.43-7.745-16.02 0-28.762 5.076-38.22 15.227-9.46 10.154-14.172 25.233-14.172 45.205 0 21.56 4.78 37.726 14.37 48.484 9.577 10.78 22.115 16.17 37.64 16.17 7.68 0 15.38-1.518 23.108-4.534 7.712-3.017 14.353-6.658 19.87-10.957v-23.04h-41.94v.034zM1246.523 95.01c0-18.492 2.767-34.017 8.307-46.573 4.134-9.248 9.77-17.533 16.91-24.904 7.133-7.35 14.947-12.787 23.465-16.348C1306.51 2.41 1319.56 0 1334.345 0c26.746 0 48.17 8.307 64.223 24.904 16.07 16.593 24.094 39.666 24.094 69.233 0 29.317-7.978 52.26-23.913 68.802-15.935 16.545-37.228 24.818-63.91 24.818-27.012 0-48.47-8.24-64.404-24.7-15.952-16.468-23.913-39.144-23.913-68.048m37.772-1.236c0 20.55 4.763 36.14 14.238 46.754 9.493 10.614 21.555 15.918 36.173 15.918 14.62 0 26.618-5.274 35.98-15.788 9.374-10.53 14.057-26.317 14.057-47.378 0-20.816-4.565-36.342-13.695-46.572-9.13-10.236-21.246-15.362-36.358-15.362-15.113 0-27.288 5.177-36.553 15.543-9.21 10.365-13.842 26.004-13.842 46.884" fill="#FFF" fill-rule="evenodd"/></svg>